<?xml version="1.0" encoding="UTF-8"?><svg id="Layer_2" xmlns="http://www.w3.org/2000/svg" viewBox="0 0 196.92 196.93"><defs><style>.cls-1{fill:#fff;}</style></defs><g id="Layer_1-2"><g><g><path class="cls-1" d="M136.86,125.09l-27.83-.05c-2.25-3.85-6.43-6.43-11.21-6.43s-8.96,2.59-11.21,6.43l-28.06,.05s-1.86,0-1.76,1.59c0,0,.04,1.24,1.68,1.31h26.88c-.12,.41-.22,.83-.3,1.26l-22.89,.04s-1.86,0-1.76,1.59c0,0,.04,1.24,1.68,1.31h22.77c.02,.39,.05,.78,.11,1.16l-19.23,.04s-1.86,0-1.76,1.59c0,0,.04,1.24,1.68,1.31h20.06c1.88,4.86,6.59,8.3,12.11,8.3s10.23-3.45,12.11-8.3h19.84c1.64-.07,1.68-1.31,1.68-1.31,.1-1.58-1.76-1.59-1.76-1.59l-19-.04c.05-.38,.09-.77,.11-1.16h22.55c1.64-.07,1.68-1.31,1.68-1.31,.1-1.58-1.76-1.59-1.76-1.59l-22.66-.04c-.08-.43-.18-.85-.3-1.26h26.65c1.64-.07,1.68-1.31,1.68-1.31,.1-1.58-1.76-1.59-1.76-1.59"/><g><path class="cls-1" d="M32.69,100.37s1.42-.09,1.79-.84c.17-.4-.13-1.41-1.79-1.41-.14,0-9.37-.1-9.37-.1,0,0-4.35,.03-5.77-3.06s1.23-6.6,5.92-6.75c4.7-.15,15.34-.02,15.34-.02l-3.26,4.23-11.58,.02s-.94-.06-1.08,.54c-.15,.59,.29,.83,.59,.81,.27,.02,8.76-.02,8.76-.02,0,0,4.01-.19,5.97,2.43,1.95,2.62,1.61,6.94-3.77,8.26-1.4,.4-8.24,.21-8.24,.21h-9.05l3.3-4.21,12.23-.09h.01Z"/><polygon class="cls-1" points="40.19 88.22 45.27 88.22 45.27 93.91 53.05 88.2 60.67 88.2 49.2 96.51 60.77 104.66 53.09 104.66 45.31 99.14 45.31 104.68 40.15 104.68 40.15 88.22 40.19 88.22"/><polygon class="cls-1" points="61.23 88.23 67.74 88.23 73.9 94.89 79.64 88.21 86.19 88.21 76.46 99.27 76.45 104.71 71.26 104.71 71.26 99.17 61.23 88.23"/><path class="cls-1" d="M86.1,92.43l3.17-4.25h27.08c.53-.02,9.21-.03,7.95,7.38-.14,.94-.81,1.87-1.51,2.52-1.1,1.01-2.33,1.67-2.33,1.67l5.62,4.93h-7.2l-4.97-4.11h-7.11v4.11h-5.11l-.04-8.53s13.13,.03,15.22,0c1.63,0,2.36-1.29,2.28-1.91,.02-.7-.87-1.7-2.4-1.7h-18.71v12.19h-5.31v-12.29h-6.66l.02-.02h.01Z"/><path class="cls-1" d="M126.82,104.69l9.51-13.34s2.06-3.32,4.22-3.17c2.19,0,3.84,2.43,3.84,2.43l9.7,14.11h-19.23l3.03-4.29h6.85l-4.21-5.9-7.43,10.18h-6.29v-.02Z"/><polygon class="cls-1" points="154.55 88.22 161.22 88.18 167.17 94.32 172.98 88.21 179.53 88.21 171.47 96.59 179.14 104.68 172.71 104.68 167.17 98.81 161.51 104.66 155.1 104.66 162.77 96.57 154.55 88.22"/></g><g><path class="cls-1" d="M48.85,59.77c3.14,0,4.94,1.97,4.94,5.61s-1.81,5.57-4.94,5.57-4.95-2-4.95-5.57,1.82-5.61,4.95-5.61Zm0,9.93c2.18,0,3.39-1.52,3.39-4.36s-1.23-4.38-3.39-4.38-3.39,1.52-3.39,4.35,1.22,4.39,3.39,4.39Z"/><path class="cls-1" d="M57.09,59.94h6.3v1.29h-4.86v3.33h4.6v1.29h-4.6v4.92h-1.44s0-10.83,0-10.83Z"/><path class="cls-1" d="M74.5,70.77v-9.54h-3.6v-1.29h8.65v1.29h-3.61v9.54h-1.44Z"/><path class="cls-1" d="M82.22,70.77v-10.83h1.47v4.62h5.33v-4.62h1.44v10.83h-1.44v-4.92h-5.33v4.92h-1.47Z"/><path class="cls-1" d="M94.17,59.94h6.73v1.28h-5.28v3.3h5.06v1.28h-5.06v3.69h5.4v1.29h-6.85v-10.83h0Z"/><path class="cls-1" d="M112.84,70.77v-4.27l-4.12-6.56h1.79l3.13,5.28,3.04-5.28h1.65l-4.05,6.56v4.27s-1.44,0-1.44,0Z"/><path class="cls-1" d="M120.92,59.94h6.73v1.28h-5.28v3.3h5.06v1.28h-5.06v3.69h5.4v1.29h-6.85v-10.83h0Z"/><path class="cls-1" d="M130.06,70.77l4.6-10.83h1.55l4.35,10.83h-1.69l-1.08-2.8h-5.03l-1.2,2.8h-1.5Zm5.3-9.37l-2.11,5.34h4.09l-1.99-5.34h.01Z"/><path class="cls-1" d="M143.14,59.94h3.82c2.41,0,3.6,.96,3.6,2.83,0,1.28-.72,2.23-1.99,2.56,1.02,.24,1.34,.68,1.55,1.62,.2,.92,.21,2.24,.68,3.82h-1.55c-.44-1.76-.39-3.08-.65-3.79-.3-.86-.84-1.1-2.2-1.1h-1.82v4.89h-1.44s0-10.83,0-10.83Zm5.87,2.98c0-1.4-.83-1.61-2.3-1.61h-2.12v3.25h2.12c1.56,0,2.3-.41,2.3-1.64Z"/></g><g><path class="cls-1" d="M73.01,167.59c4.59-4.11,7.23-6.35,7.23-8.18,0-.99-.71-1.77-1.77-1.77-1.29,0-1.98,.77-2.02,2.28h-2.86v-.17c0-2.6,1.85-4.26,4.84-4.26s4.87,1.61,4.87,3.98c0,2.67-2.39,5.06-6.85,8.72h6.93v2.54h-10.38v-3.14h0Z"/><path class="cls-1" d="M96.76,163.22c0,5.1-1.83,7.75-5.23,7.75s-5.23-2.65-5.23-7.75,1.79-7.73,5.23-7.73,5.23,2.63,5.23,7.73Zm-5.23-5.47c-1.36,0-2.02,1.81-2.02,5.47s.65,5.49,2.02,5.49,2.02-1.83,2.02-5.49-.69-5.47-2.02-5.47Z"/><path class="cls-1" d="M100.11,167.59c4.59-4.11,7.23-6.35,7.23-8.18,0-.99-.71-1.77-1.77-1.77-1.29,0-1.98,.77-2.02,2.28h-2.86v-.17c0-2.6,1.85-4.26,4.84-4.26s4.87,1.61,4.87,3.98c0,2.67-2.39,5.06-6.85,8.72h6.93v2.54h-10.38v-3.14h0Z"/><path class="cls-1" d="M114.5,167.59c4.59-4.11,7.23-6.35,7.23-8.18,0-.99-.71-1.77-1.77-1.77-1.29,0-1.98,.77-2.02,2.28h-2.86v-.17c0-2.6,1.85-4.26,4.84-4.26s4.87,1.61,4.87,3.98c0,2.67-2.39,5.06-6.85,8.72h6.93v2.54h-10.38v-3.14h0Z"/></g><path class="cls-1" d="M98.8,0C44.51-.18,.19,43.83,0,98.13c-.19,54.29,43.83,98.61,98.12,98.8s98.61-43.83,98.8-98.12C197.11,44.51,153.09,.19,98.8,0Zm-.65,191.24c-51.24-.17-92.63-41.85-92.46-93.09C5.86,46.91,47.54,5.51,98.78,5.69c51.24,.17,92.63,41.85,92.46,93.09-.17,51.24-41.85,92.63-93.09,92.46h0Z"/></g><g><path class="cls-1" d="M54.78,45.86l2.48-6.95,2.25,6.95h-4.73Zm-5.47,6.22h3.3l1.28-3.53h6.49l1.16,3.53h3.58l-5.72-16.4h-4.15s-5.94,16.4-5.94,16.4Z"/><rect class="cls-1" x="68.61" y="35.68" width="3.48" height="16.4"/><path class="cls-1" d="M77.06,52.08h3.44v-6.6h3.03c1.85,0,1.96,.2,2.14,2.12l.23,2.48c.07,.77,.16,1.44,.46,2h3.8c-.43-.61-.68-1.53-.84-2.76l-.3-2.37c-.25-2.03-.89-2.89-2.78-3.1,2.23-.52,3.19-1.73,3.19-4.05,0-2.87-1.8-4.12-5.56-4.12h-6.81v16.4h0Zm3.44-9.27v-4.6h2.07c2.35,0,3.39,.34,3.39,2.35,0,1.82-1.03,2.25-3.39,2.25h-2.07Z"/><polygon class="cls-1" points="93.91 52.08 104.8 52.08 104.8 49.3 97.39 49.3 97.39 35.68 93.91 35.68 93.91 52.08"/><rect class="cls-1" x="108.66" y="35.68" width="3.48" height="16.4"/><polygon class="cls-1" points="117.11 52.08 120.25 52.08 120.25 38.51 126.63 52.08 131.48 52.08 131.48 35.68 128.34 35.68 128.34 48.87 122.17 35.68 117.11 35.68 117.11 52.08"/><polygon class="cls-1" points="136.47 52.08 147.61 52.08 147.61 49.35 140.03 49.35 140.03 44.93 146.9 44.93 146.9 42.26 140.03 42.26 140.03 38.39 147.36 38.39 147.36 35.68 136.47 35.68 136.47 52.08"/></g></g></g></svg>