<svg id="skytrax_Image" data-name="skytrax Image" xmlns="http://www.w3.org/2000/svg" viewBox="0 0 562.37 562.37"><defs><style>.cls-1{fill:#fff;}</style></defs><path class="cls-1" d="M327.33,608A281.19,281.19,0,0,1,128.5,128,281.18,281.18,0,0,1,526.16,525.68,279.34,279.34,0,0,1,327.33,608Zm0-550.37A269.19,269.19,0,0,0,137,517.2,269.18,269.18,0,0,0,517.67,136.51,267.42,267.42,0,0,0,327.33,57.67Z" transform="translate(-46.15 -45.67)"/><path class="cls-1" d="M414.71,511.71H352.17a29,29,0,0,0-50.34,0H239.29a3.66,3.66,0,0,0,0,7.32h59.56c-.18.71-.33,1.43-.46,2.16h-51.1a3.66,3.66,0,0,0,0,7.32h50.76c.06.72.13,1.45.24,2.16h-43a3.66,3.66,0,1,0,0,7.31h45.15a29.05,29.05,0,0,0,53.12,0h45.15a3.66,3.66,0,1,0,0-7.31h-43c.11-.71.18-1.44.24-2.16h50.76a3.66,3.66,0,1,0,0-7.32h-51.1c-.13-.73-.28-1.45-.46-2.16h59.56a3.66,3.66,0,1,0,0-7.32Z" transform="translate(-46.15 -45.67)"/><polygon class="cls-1" points="462.31 384.74 447.52 384.74 434.41 398.37 421.31 384.74 406.51 384.74 424.49 403.44 406.51 422.15 421.31 422.15 434.41 408.52 447.52 422.15 462.31 422.15 444.33 403.44 462.31 384.74"/><polygon class="cls-1" points="196.89 384.74 179.81 384.74 162.99 397.51 162.99 384.74 151.19 384.74 151.19 422.15 162.99 422.15 162.99 409.48 180.73 422.15 198.81 422.15 171.95 403.68 196.89 384.74"/><polygon class="cls-1" points="239.71 384.74 226.38 399.75 213.05 384.74 198.25 384.74 220.48 409.78 220.48 422.15 232.28 422.15 232.28 409.78 254.51 384.74 239.71 384.74"/><path class="cls-1" d="M385.38,443.89c0-7.45-6.43-13.48-14.37-13.48H307.69l-8.75,9.89h15.79v27.52h11.8V440.3H369.6a3.71,3.71,0,0,1,3.82,3.58s.58,4.6-4.91,4.6h-34v19.33h11.8v-9.69h15.55l10.7,9.69h18.08L376.36,456.4A13.52,13.52,0,0,0,385.38,443.89Z" transform="translate(-46.15 -45.67)"/><path class="cls-1" d="M183.37,443.31H160.15a1.62,1.62,0,1,1,0-3.23h27.18l7.84-9.67H157.81a11,11,0,0,0,0,21.92h24.36a2.8,2.8,0,1,1,0,5.59H153.69l-8.15,9.9h37.83a12.26,12.26,0,0,0,0-24.51Z" transform="translate(-46.15 -45.67)"/><path class="cls-1" d="M428.64,434.76h0l-.68-.94a7.84,7.84,0,0,0-12.75-.26l-.87,1.2-23.65,33.06H405l16.5-23.06,9.4,13.14H415.5l-7.11,9.92H452.3l-23.67-33.05Z" transform="translate(-46.15 -45.67)"/><path class="cls-1" d="M368.58,328V284.48a2.77,2.77,0,0,0-2.77-2.77h-4s-15.76,1.1-34.82-16.63c-19.06,17.73-34.82,16.63-34.82,16.63h-4a2.77,2.77,0,0,0-2.77,2.77V328a47.07,47.07,0,0,0,15.52,34.29A165.61,165.61,0,0,0,327,381.58a165.61,165.61,0,0,0,26.06-19.29A47.07,47.07,0,0,0,368.58,328Zm-28.14-.72L348.8,353,327,337.11,305.15,353l8.37-25.69-21.71-15.81h26.83L327,285.92l8.32,25.55h26.87Z" transform="translate(-46.15 -45.67)"/><path class="cls-1" d="M561.23,328V284.48a2.77,2.77,0,0,0-2.77-2.77h-4s-15.76,1.1-34.82-16.63c-19,17.73-34.81,16.63-34.81,16.63h-4a2.78,2.78,0,0,0-2.78,2.77V328a47.07,47.07,0,0,0,15.52,34.29,165.61,165.61,0,0,0,26.06,19.29,165,165,0,0,0,26.06-19.29A47,47,0,0,0,561.23,328Zm-28.14-.72L541.45,353l-21.8-15.86L497.81,353l8.36-25.69-21.71-15.81h26.83l8.36-25.55L528,311.47h26.87Z" transform="translate(-46.15 -45.67)"/><path class="cls-1" d="M175.93,328V284.48a2.78,2.78,0,0,0-2.78-2.77h-4s-15.76,1.1-34.81-16.63c-19.06,17.73-34.82,16.63-34.82,16.63h-4a2.77,2.77,0,0,0-2.77,2.77V328a47,47,0,0,0,15.52,34.29,165,165,0,0,0,26.06,19.29,165.61,165.61,0,0,0,26.06-19.29A47.07,47.07,0,0,0,175.93,328Zm-28.14-.72L156.15,353l-21.8-15.86L112.5,353l8.36-25.69-21.7-15.81H126l8.37-25.55,8.32,25.55h26.87Z" transform="translate(-46.15 -45.67)"/><path class="cls-1" d="M271.64,328V284.48a2.77,2.77,0,0,0-2.77-2.77h-4s-15.76,1.1-34.82-16.63c-19.05,17.73-34.81,16.63-34.81,16.63h-4a2.77,2.77,0,0,0-2.77,2.77V328A47,47,0,0,0,204,362.29a165.23,165.23,0,0,0,26.05,19.29,165,165,0,0,0,26.06-19.29A47,47,0,0,0,271.64,328Zm-28.14-.72L251.87,353l-21.81-15.86L208.22,353l8.36-25.69-21.71-15.81H221.7l8.36-25.55,8.32,25.55h26.88Z" transform="translate(-46.15 -45.67)"/><path class="cls-1" d="M465.51,328V284.48a2.77,2.77,0,0,0-2.77-2.77h-4s-15.76,1.1-34.81-16.63c-19.06,17.73-34.82,16.63-34.82,16.63h-4a2.77,2.77,0,0,0-2.77,2.77V328a47,47,0,0,0,15.52,34.29,165,165,0,0,0,26.06,19.29A165.23,165.23,0,0,0,450,362.29,47,47,0,0,0,465.51,328Zm-28.14-.72L445.74,353l-21.8-15.86L402.09,353l8.36-25.69-21.71-15.81h26.83l8.37-25.55,8.31,25.55h26.88Z" transform="translate(-46.15 -45.67)"/><path class="cls-1" d="M266.16,113.55c-10.14,0-17.11,7.5-17.11,19,0,10.95,6.43,19,16.58,19,9.9,0,17.2-7.16,17.2-19.67C282.83,121.18,276.65,113.55,266.16,113.55Zm-.19,32c-6.28,0-10-5.56-10-13.18s3.5-12.88,10-12.88,9.92,5.55,9.92,12.6C275.9,139.93,272.3,145.57,266,145.57Z" transform="translate(-46.15 -45.67)"/><path class="cls-1" d="M296.78,149.45a1.55,1.55,0,0,0,1.62,1.28h7.28a1.55,1.55,0,0,0,1.62-1.28l10.91-34.35s.64-1.55-.72-1.55h-4.87a1.59,1.59,0,0,0-1.6,1.2l-8.88,28.16-.1.28-.1-.28-8.88-28.16a1.59,1.59,0,0,0-1.6-1.2h-4.87c-1.36,0-.73,1.55-.73,1.55Z" transform="translate(-46.15 -45.67)"/><path class="cls-1" d="M232.31,151.56a16.86,16.86,0,0,0,13.18-3.68v-6.81s-5,3.85-9.93,3.68c-4.28-.14-9-4-8.76-11.85,0,0-.57-12.4,9.31-13a13.44,13.44,0,0,1,9.38,3.68v-6.81s-6.26-5.43-14.27-2.88-12.4,10.75-12.07,19.87S225.06,150.53,232.31,151.56Z" transform="translate(-46.15 -45.67)"/><rect class="cls-1" x="276.78" y="68.01" width="7.51" height="36.83" rx="0.88"/><rect class="cls-1" x="132.08" y="137.14" width="7.58" height="36.2" rx="0.88"/><rect class="cls-1" x="389.79" y="137.14" width="7.58" height="36.2" rx="0.88"/><rect class="cls-1" x="204.34" y="137.14" width="7.58" height="36.2" rx="0.88"/><path class="cls-1" d="M226.93,219h18.13a.88.88,0,0,0,.88-.88v-4.82a.88.88,0,0,0-.88-.88H233.63V183.69a.88.88,0,0,0-.87-.88h-5.83a.89.89,0,0,0-.88.88v34.44A.87.87,0,0,0,226.93,219Z" transform="translate(-46.15 -45.67)"/><path class="cls-1" d="M430.23,182.81H404.78a.88.88,0,0,0-.87.88v4.83a.87.87,0,0,0,.87.87h9.64v28.74a.88.88,0,0,0,.88.88h5.83a.88.88,0,0,0,.88-.88V189.39h8.22a.87.87,0,0,0,.87-.87v-4.83A.88.88,0,0,0,430.23,182.81Z" transform="translate(-46.15 -45.67)"/><path class="cls-1" d="M395,183.06a1.4,1.4,0,0,0-1.2-.87h-6.61a1.39,1.39,0,0,0-1.2.87L373,218.13c-.18.49.07.88.55.88h6.75a1.38,1.38,0,0,0,1.2-.88l2.48-7.28h12.92l2.48,7.28a1.4,1.4,0,0,0,1.2.88h6.76c.48,0,.73-.39.55-.88Zm-9.07,22.21,4.56-13.4,4.56,13.4Z" transform="translate(-46.15 -45.67)"/><path class="cls-1" d="M161,183.06a1.4,1.4,0,0,0-1.2-.87h-6.61a1.39,1.39,0,0,0-1.2.87l-12.94,35.07c-.18.49.07.88.55.88h6.75a1.38,1.38,0,0,0,1.2-.88l2.48-7.28H163l2.48,7.28a1.4,1.4,0,0,0,1.2.88h6.76c.48,0,.73-.39.55-.88ZM152,205.27l4.56-13.4,4.56,13.4Z" transform="translate(-46.15 -45.67)"/><rect class="cls-1" x="325.24" y="87.99" width="14.06" height="5.53" rx="0.88"/><path class="cls-1" d="M392,150.51h20.24a.87.87,0,0,0,.87-.87v-3.79a.87.87,0,0,0-.87-.87h-5.74V114.55a.86.86,0,0,0-.87-.86h-5.77a.84.84,0,0,0-.67.34h0l-7,6a2.11,2.11,0,0,0-.69,1.81v3.56c0,1.52,1.36,1,1.36,1l6.14-4.09V145h-7a.87.87,0,0,0-.87.87v3.79A.87.87,0,0,0,392,150.51Z" transform="translate(-46.15 -45.67)"/><path class="cls-1" d="M365.39,143.1a23.25,23.25,0,0,0,2.5-10.31s.66-8.89-5.08-14.32A16.43,16.43,0,0,0,351,113.69H338.62a.86.86,0,0,0-.87.86v35.09a.87.87,0,0,0,.87.87H353A14.76,14.76,0,0,0,365.39,143.1ZM353,144h-7.73V120.2H351s8.69-.15,8.9,12C359.9,132.24,360.65,142.25,353,144Z" transform="translate(-46.15 -45.67)"/><path class="cls-1" d="M431.62,113.45c-8.69,0-13.17,6.38-13.17,13.3,0,0-.23,9.41,8.64,11.1,0,0,3.91,1.11,9.18-2.06a9.21,9.21,0,0,1,0,2.72c-.79,4.53-5.78,6.9-8,7a9.57,9.57,0,0,1-4.79-1c-1.12-.55-2.32-1-2.32-1-1.39-.33-1.34.95-1.34.95v3.17a2.17,2.17,0,0,0,.82,1.56s2,1.73,7.36,2,9.92-3.46,9.92-3.46c6.13-4.54,6.36-15.1,6.36-15.1v-3.43C444.23,120.45,439.86,113.45,431.62,113.45Zm2.11,17.66s-3.1,1.89-5.82-.23a7,7,0,0,1-2.05-6.59,5.54,5.54,0,0,1,5.48-4.75s4.06-.32,5.05,4.87C436.39,124.41,437.09,129.36,433.73,131.11Z" transform="translate(-46.15 -45.67)"/><path class="cls-1" d="M481.82,182.81H476a.89.89,0,0,0-.88.88v23.9L463,184.65a3,3,0,0,0-2.54-1.84h-7.95a.89.89,0,0,0-.88.88v34.44a.88.88,0,0,0,.88.88h5.83a.88.88,0,0,0,.88-.88V193.45l12.88,23.62a3.45,3.45,0,0,0,2.74,1.94h7a.88.88,0,0,0,.88-.88V183.69A.89.89,0,0,0,481.82,182.81Z" transform="translate(-46.15 -45.67)"/><path class="cls-1" d="M295.71,182.81h-5.83a.89.89,0,0,0-.88.88v23.9l-12.13-22.94a3,3,0,0,0-2.54-1.84h-7.95a.89.89,0,0,0-.88.88v34.44a.88.88,0,0,0,.88.88h5.83a.88.88,0,0,0,.88-.88V193.45L286,217.07a3.46,3.46,0,0,0,2.75,1.94h7a.88.88,0,0,0,.88-.88V183.69A.89.89,0,0,0,295.71,182.81Z" transform="translate(-46.15 -45.67)"/><path class="cls-1" d="M218.16,197.87a12.91,12.91,0,0,0-.48-10.89c-2.39-4.27-7.87-4.17-7.87-4.17H194.73a.88.88,0,0,0-.87.88v34.44a.87.87,0,0,0,.87.88h5.83a.87.87,0,0,0,.88-.88V204.25h4.45c5,5.61,7,13.88,7,13.88a.87.87,0,0,0,.88.88h6.82a.87.87,0,0,0,.88-.88,48.67,48.67,0,0,0-8.4-15.5A8.79,8.79,0,0,0,218.16,197.87Zm-6.8-4.19a4.87,4.87,0,0,1-4.16,5h-5.76V188.39h6.29C211.48,189.31,211.36,193.68,211.36,193.68Z" transform="translate(-46.15 -45.67)"/><path class="cls-1" d="M369,197.87a12.87,12.87,0,0,0-.48-10.89c-2.39-4.27-7.87-4.17-7.87-4.17H345.6a.88.88,0,0,0-.87.88v34.44a.87.87,0,0,0,.87.88h5.83a.87.87,0,0,0,.88-.88V204.25h4.45c4.95,5.61,6.95,13.88,6.95,13.88a.87.87,0,0,0,.88.88h6.82a.87.87,0,0,0,.88-.88,48.67,48.67,0,0,0-8.4-15.5A8.79,8.79,0,0,0,369,197.87Zm-6.8-4.19a4.87,4.87,0,0,1-4.16,5h-5.76V188.39h6.29C362.35,189.31,362.23,193.68,362.23,193.68Z" transform="translate(-46.15 -45.67)"/><path class="cls-1" d="M505.1,187.65a19.72,19.72,0,0,1,10.71,3.2,1.85,1.85,0,0,0,1.55.42,1,1,0,0,0,.86-1.17v-3.82a1.61,1.61,0,0,0-.69-1.4,25,25,0,0,0-13-3.19c-10.14,0-17.11,7.5-17.11,19,0,10.94,6.8,19,17,19a24.87,24.87,0,0,0,12.93-3.41s.6-.23.6-1.78V198.8a.88.88,0,0,0-.88-.88H503.7a.87.87,0,0,0-.88.88v3.77a.88.88,0,0,0,.88.88h7.65v7.07a8.37,8.37,0,0,1-5.71,2.73,9.76,9.76,0,0,1-5.19-1c-3.53-2-5.66-6.21-5.66-11.7C494.79,192.85,498.6,187.72,505.1,187.65Z" transform="translate(-46.15 -45.67)"/><path class="cls-1" d="M324.14,189.39a.87.87,0,0,0,.88-.87v-4.83a.88.88,0,0,0-.88-.88H304.6a.89.89,0,0,0-.88.88v34.44a.88.88,0,0,0,.88.88h19.54a.87.87,0,0,0,.88-.88v-4.82a.87.87,0,0,0-.88-.88H311.3V203.1h10.59a.87.87,0,0,0,.88-.87V198.4a.87.87,0,0,0-.88-.88H311.3v-8.13Z" transform="translate(-46.15 -45.67)"/></svg>