<svg xmlns="http://www.w3.org/2000/svg" width="186.79" height="38.081" viewBox="0 0 186.79 38.081">
  <g id="Group_6190" data-name="Group 6190" transform="translate(-33.54 -29.306)">
    <g id="Group_6189" data-name="Group 6189" transform="translate(-5 7.306)">
      <path id="Path_1451" data-name="Path 1451" d="M334.054,36.177h0l-1.264-1.264-1.264,1.264-1.264,1.264,1.264,1.264,1.264-1.264,1.264,1.264,1.264-1.264Z" transform="translate(-130.141 -6.922)" fill="#fff"/>
      <g id="Group_5155" data-name="Group 5155" transform="translate(178.713 31.246)">
        <path id="Path_1452" data-name="Path 1452" d="M288.113,49.68a2.735,2.735,0,0,1-.9-.631,2.906,2.906,0,0,1-.59-.927,3.174,3.174,0,0,1,0-2.274,2.909,2.909,0,0,1,.59-.926,2.742,2.742,0,0,1,.9-.631,2.908,2.908,0,0,1,2.274.014,2.728,2.728,0,0,1,.9.631,2.9,2.9,0,0,1,.59.927,3.181,3.181,0,0,1,0,2.274,2.9,2.9,0,0,1-.59.926,2.728,2.728,0,0,1-.9.631,2.8,2.8,0,0,1-.867.211h-.27a2.787,2.787,0,0,1-1.137-.225m11.11,0a2.733,2.733,0,0,1-.9-.631,2.908,2.908,0,0,1-.59-.927,3.181,3.181,0,0,1,0-2.274,2.911,2.911,0,0,1,.59-.926,2.739,2.739,0,0,1,.9-.631,2.908,2.908,0,0,1,2.274.014,2.73,2.73,0,0,1,.9.631,2.9,2.9,0,0,1,.59.927,3.181,3.181,0,0,1,0,2.274,2.9,2.9,0,0,1-.59.926,2.73,2.73,0,0,1-.9.631,2.8,2.8,0,0,1-.867.211h-.27a2.788,2.788,0,0,1-1.137-.225m7.7-5.576v5.8h-2.386a5.17,5.17,0,0,0,.509-.912,5.094,5.094,0,0,0-.014-3.958,5.115,5.115,0,0,0-1.094-1.614,5.193,5.193,0,0,0-1.629-1.095,5.1,5.1,0,0,0-3.958.014,5.107,5.107,0,0,0-2.723,2.723,5.093,5.093,0,0,0-.014,3.958,5.419,5.419,0,0,0,.483.884h-2.67a5.142,5.142,0,0,0,.509-.912,5.1,5.1,0,0,0-.014-3.958,5.125,5.125,0,0,0-1.095-1.614,5.189,5.189,0,0,0-1.629-1.095,5.1,5.1,0,0,0-3.958.014,5.105,5.105,0,0,0-2.723,2.723,5.1,5.1,0,0,0-.014,3.958,5.2,5.2,0,0,0,1.1,1.628,5.122,5.122,0,0,0,1.614,1.095,4.943,4.943,0,0,0,1.979.407h19.977V44.1Z" transform="translate(-284.112 -41.932)" fill="#fff"/>
      </g>
      <path id="Path_1453" data-name="Path 1453" d="M316.141,36.185l1.27,1.27,1.271-1.271-1.271-1.27-1.27,1.27-1.27-1.27-1.271,1.27,1.271,1.271Z" transform="translate(-121.209 -6.922)" fill="#fff"/>
      <path id="Path_1454" data-name="Path 1454" d="M292.19,36.185l1.27,1.27,1.271-1.271-1.271-1.27-1.27,1.27-1.27-1.27-1.271,1.27,1.271,1.271Z" transform="translate(-108.369 -6.922)" fill="#fff"/>
      <path id="Path_1455" data-name="Path 1455" d="M284.112,71.019V68.8h7.033v2.218h-2.4v7.748H286.5V71.019Z" transform="translate(-105.399 -25.091)" fill="#fff"/>
      <path id="Path_1456" data-name="Path 1456" d="M304.425,68.8v3.9h3.986V68.8h2.246v9.966h-2.246v-3.9h-3.986v3.9h-2.246V68.8Z" transform="translate(-115.085 -25.091)" fill="#fff"/>
      <path id="Path_1457" data-name="Path 1457" d="M330.993,68.8v2.218h-3.93V72.7h3.088v2.162h-3.088v1.684h3.93v2.218h-6.176V68.8Z" transform="translate(-127.222 -25.091)" fill="#fff"/>
      <path id="Path_1458" data-name="Path 1458" d="M368.338,73.191l-.94,2.078h1.881Zm4.913,5.446h-2.357l-.717-1.544H366.5l-.716,1.544h-2.358l4.913-10.078Z" transform="translate(-147.92 -24.96)" fill="#fff"/>
      <g id="Group_5156" data-name="Group 5156" transform="translate(204.434 43.57)">
        <path id="Path_1459" data-name="Path 1459" d="M344.628,76.6a2.77,2.77,0,0,0,1.473-.407l-1.515-1.235,1.277-1.558,1.46,1.179a4.168,4.168,0,0,0,.112-.449,2.609,2.609,0,0,0,.042-.463,3.03,3.03,0,0,0-.211-1.137,2.894,2.894,0,0,0-.59-.926,2.733,2.733,0,0,0-.9-.632,2.908,2.908,0,0,0-2.274-.014,2.733,2.733,0,0,0-.9.632,2.893,2.893,0,0,0-.589.926,3.168,3.168,0,0,0,0,2.274,2.893,2.893,0,0,0,.589.926,2.732,2.732,0,0,0,.9.631,2.788,2.788,0,0,0,1.137.225Zm3.243.983a5.02,5.02,0,0,1-1.488.842,5.089,5.089,0,0,1-1.74.295,4.943,4.943,0,0,1-1.979-.407,5.129,5.129,0,0,1-1.614-1.095,5.2,5.2,0,0,1-1.1-1.629,5.1,5.1,0,0,1,.014-3.958,5.106,5.106,0,0,1,2.723-2.723,5.1,5.1,0,0,1,3.958-.014,5.2,5.2,0,0,1,1.629,1.095,5.128,5.128,0,0,1,1.094,1.614,4.933,4.933,0,0,1,.407,1.979,5.392,5.392,0,0,1-.154,1.264,5.037,5.037,0,0,1-.421,1.137l1.417,1.137-1.278,1.572-1.418-1.15Z" transform="translate(-339.561 -68.499)" fill="#fff"/>
      </g>
      <path id="Path_1460" data-name="Path 1460" d="M242.159,30.06l.578,2.163,2.163-.578-1.156-4.326-4.326,1.156L240,30.638Z" transform="translate(-81.438 -2.851)" fill="#fff"/>
      <path id="Path_1461" data-name="Path 1461" d="M260.293,62.234l3.168-3.165L260.3,55.9l-1.584,1.582,1.582,1.584-1.584,1.583Z" transform="translate(-91.782 -18.175)" fill="#fff"/>
      <path id="Path_1462" data-name="Path 1462" d="M254.645,74.485l.578,2.163-2.163.578.578,2.163,4.326-1.156-1.156-4.326Z" transform="translate(-88.752 -27.828)" fill="#fff"/>
      <path id="Path_1463" data-name="Path 1463" d="M242.144,89.72l-2.163-.581L239.4,91.3l4.325,1.162,1.162-4.325-2.162-.581Z" transform="translate(-81.429 -35.147)" fill="#fff"/>
      <path id="Path_1464" data-name="Path 1464" d="M224.565,94.784,222.982,93.2,221.4,94.782l3.165,3.168,3.168-3.165L226.149,93.2Z" transform="translate(-71.778 -38.171)" fill="#fff"/>
      <path id="Path_1465" data-name="Path 1465" d="M207.968,89.713l-.578-2.163-2.162.578,1.156,4.326,4.326-1.156-.578-2.163Z" transform="translate(-63.108 -35.142)" fill="#fff"/>
      <path id="Path_1466" data-name="Path 1466" d="M196.142,74.47l-2.162-.581-1.162,4.325,4.325,1.162.581-2.162-2.163-.581Z" transform="translate(-56.456 -27.819)" fill="#fff"/>
      <path id="Path_1467" data-name="Path 1467" d="M192.26,60.638l-1.582-1.584,1.584-1.583-1.582-1.584-3.168,3.165,3.165,3.168Z" transform="translate(-53.61 -18.167)" fill="#fff"/>
      <path id="Path_1468" data-name="Path 1468" d="M196.149,44.62l-.578-2.163,2.163-.578-.578-2.163-4.326,1.156,1.156,4.326Z" transform="translate(-56.462 -9.497)" fill="#fff"/>
      <path id="Path_1469" data-name="Path 1469" d="M207.978,30.05l2.163.581.581-2.162L206.4,27.307l-1.162,4.325,2.162.581Z" transform="translate(-63.112 -2.845)" fill="#fff"/>
      <path id="Path_1470" data-name="Path 1470" d="M224.579,25.166l1.582,1.584,1.584-1.582L224.581,22l-3.168,3.165,1.582,1.584Z" transform="translate(-71.785 0)" fill="#fff"/>
      <g id="Group_5157" data-name="Group 5157" transform="translate(144.86 30.736)">
        <path id="Path_1471" data-name="Path 1471" d="M229.705,80.755" transform="translate(-221.091 -62.235)" fill="#fff"/>
        <path id="Path_1472" data-name="Path 1472" d="M219.81,59.286a105.725,105.725,0,0,1,15.315-16.743l-1.47-1.712a103.871,103.871,0,0,0-14.5,11.767l-5.676-4.834-2.347,1.686,8.614,9.9Z" transform="translate(-211.136 -40.831)" fill="#ff5f00"/>
      </g>
    </g>
    <g id="Group_5158" data-name="Group 5158" transform="translate(33.54 44.991)">
      <path id="Path_1473" data-name="Path 1473" d="M37.54,64.079a3.993,3.993,0,0,1,4.019-4.018A3.95,3.95,0,0,1,45,61.944l-.854.514a2.949,2.949,0,0,0-2.584-1.434,3.056,3.056,0,0,0,0,6.11A2.949,2.949,0,0,0,44.142,65.7l.854.514A3.948,3.948,0,0,1,41.559,68.1,3.994,3.994,0,0,1,37.54,64.079Z" transform="translate(-37.54 -60.061)" fill="#fff"/>
      <path id="Path_1474" data-name="Path 1474" d="M47.188,60.205h4.533v.963H48.206v2.354h2.858v.963H48.206v2.529h3.515v.964H47.188Z" transform="translate(-38.38 -60.074)" fill="#fff"/>
      <path id="Path_1475" data-name="Path 1475" d="M53.871,60.205h2.65a2.091,2.091,0,0,1,2.321,2.145,2.022,2.022,0,0,1-1.927,2.081l3,3.548h-1.28l-2.99-3.537H54.89v3.537H53.871Zm2.53,3.329c.886,0,1.423-.394,1.423-1.183s-.537-1.2-1.423-1.2H54.89v2.387Z" transform="translate(-38.962 -60.074)" fill="#fff"/>
      <path id="Path_1476" data-name="Path 1476" d="M62.772,61.168h-2.42v-.963h5.836v.963H63.768v6.811h-1Z" transform="translate(-39.526 -60.074)" fill="#fff"/>
      <path id="Path_1477" data-name="Path 1477" d="M68.079,60.205H69.1v7.774H68.079Z" transform="translate(-40.199 -60.074)" fill="#fff"/>
      <path id="Path_1478" data-name="Path 1478" d="M71.451,60.205h4.522v.963h-3.5v2.354H75.24v.963H72.469v3.493H71.451Z" transform="translate(-40.492 -60.074)" fill="#fff"/>
      <path id="Path_1479" data-name="Path 1479" d="M77.823,60.205h1.018v7.774H77.823Z" transform="translate(-41.047 -60.074)" fill="#fff"/>
      <path id="Path_1480" data-name="Path 1480" d="M81.195,60.205h4.533v.963H82.213v2.354h2.858v.963H82.213v2.529h3.515v.964H81.195Z" transform="translate(-41.34 -60.074)" fill="#fff"/>
      <path id="Path_1481" data-name="Path 1481" d="M87.879,60.205h2.233a3.895,3.895,0,1,1,0,7.774H87.879Zm2.233,6.822a2.94,2.94,0,1,0,0-5.869H88.9v5.869Z" transform="translate(-41.922 -60.074)" fill="#fff"/>
      <path id="Path_1482" data-name="Path 1482" d="M99.423,60.205h2.551a2.129,2.129,0,0,1,2.322,2.058,1.75,1.75,0,0,1-.833,1.589,1.852,1.852,0,0,1,1.348,1.861,2.348,2.348,0,0,1-2.606,2.266H99.423Zm2.551,3.34a1.191,1.191,0,0,0,1.325-1.205,1.222,1.222,0,0,0-1.325-1.215h-1.533v2.42Zm.274,3.514c1.051,0,1.566-.536,1.566-1.313,0-.756-.515-1.325-1.555-1.325h-1.818v2.637Z" transform="translate(-42.927 -60.074)" fill="#fff"/>
      <path id="Path_1483" data-name="Path 1483" d="M108.625,64.683,105.6,60.205h1.215l2.311,3.459,2.322-3.459h1.215l-3.034,4.489v3.285h-1.007Z" transform="translate(-43.465 -60.074)" fill="#fff"/>
    </g>
    <line id="Line_932" data-name="Line 932" y2="38" transform="translate(116.127 29.387)" fill="none" stroke="#fff" stroke-width="0.5"/>
  </g>
</svg>
